<svg xmlns="http://www.w3.org/2000/svg" width="1920" height="620" viewBox="0 0 1920 620">
  <defs>
    <linearGradient id="sky" x1="0" y1="0" x2="0" y2="1">
      <stop offset="0" stop-color="#04a6f5"/>
      <stop offset="1" stop-color="#75c8f7"/>
    </linearGradient>
    <linearGradient id="glass" x1="0" y1="0" x2="1" y2="1">
      <stop offset="0" stop-color="#dff7ff"/>
      <stop offset="1" stop-color="#50b4d9"/>
    </linearGradient>
  </defs>
  <rect width="1920" height="620" fill="url(#sky)"/>
  <circle cx="1510" cy="90" r="64" fill="#fff2a8" opacity="0.85"/>
  <path d="M0 510h1920v110H0z" fill="#d7e6ea"/>
  <path d="M820 190h280v315H820z" fill="#f8f8f8"/>
  <path d="M850 220h220v34H850zm0 58h220v34H850zm0 58h220v34H850zm0 58h220v34H850z" fill="url(#glass)"/>
  <path d="M145 260h600v245H145z" fill="#f5f5f5"/>
  <path d="M1175 260h600v245h-600z" fill="#f5f5f5"/>
  <g fill="#bcd7e6">
    <rect x="185" y="292" width="96" height="44"/><rect x="305" y="292" width="96" height="44"/><rect x="425" y="292" width="96" height="44"/><rect x="545" y="292" width="96" height="44"/>
    <rect x="185" y="360" width="96" height="44"/><rect x="305" y="360" width="96" height="44"/><rect x="425" y="360" width="96" height="44"/><rect x="545" y="360" width="96" height="44"/>
    <rect x="1215" y="292" width="96" height="44"/><rect x="1335" y="292" width="96" height="44"/><rect x="1455" y="292" width="96" height="44"/><rect x="1575" y="292" width="96" height="44"/>
    <rect x="1215" y="360" width="96" height="44"/><rect x="1335" y="360" width="96" height="44"/><rect x="1455" y="360" width="96" height="44"/><rect x="1575" y="360" width="96" height="44"/>
  </g>
  <path d="M0 505h1920v25H0z" fill="#92b4b9"/>
  <path d="M450 620 890 505h140l440 115z" fill="#e9ecef"/>
  <path d="M890 505h140l70 115H820z" fill="#d5dde3"/>
  <rect x="860" y="470" width="200" height="42" fill="#d51b16"/>
  <text x="960" y="499" text-anchor="middle" font-family="Microsoft YaHei, Arial" font-size="26" fill="#ffe9a3" font-weight="700">某某市第一中学</text>
  <g fill="#1e8d54">
    <circle cx="370" cy="470" r="44"/><circle cx="470" cy="465" r="48"/><circle cx="570" cy="472" r="42"/>
    <circle cx="1350" cy="470" r="44"/><circle cx="1450" cy="465" r="48"/><circle cx="1550" cy="472" r="42"/>
  </g>
</svg>
